<?xml version="1.0" encoding="UTF-8" standalone="no"?>
<!-- Created with Inkscape (http://www.inkscape.org/) -->

<svg
   width="282.13489mm"
   height="102.57297mm"
   viewBox="0 0 282.13489 102.57297"
   version="1.1"
   id="svg5"
   inkscape:version="1.1.2 (b8e25be833, 2022-02-05)"
   sodipodi:docname="Nvidia CUDA.svg"
   xmlns:inkscape="http://www.inkscape.org/namespaces/inkscape"
   xmlns:sodipodi="http://sodipodi.sourceforge.net/DTD/sodipodi-0.dtd"
   xmlns="http://www.w3.org/2000/svg"
   xmlns:svg="http://www.w3.org/2000/svg">
  <sodipodi:namedview
     id="namedview7"
     pagecolor="#ffffff"
     bordercolor="#666666"
     borderopacity="1.0"
     inkscape:pageshadow="2"
     inkscape:pageopacity="0.0"
     inkscape:pagecheckerboard="0"
     inkscape:document-units="mm"
     showgrid="false"
     inkscape:zoom="0.64052329"
     inkscape:cx="522.22925"
     inkscape:cy="148.31623"
     inkscape:window-width="1920"
     inkscape:window-height="1017"
     inkscape:window-x="-8"
     inkscape:window-y="-8"
     inkscape:window-maximized="1"
     inkscape:current-layer="layer1" />
  <defs
     id="defs2" />
  <g
     inkscape:label="Layer 1"
     inkscape:groupmode="layer"
     id="layer1"
     transform="translate(33.093837,-108.86597)">
    <g
       id="g842"
       transform="matrix(2.3688907,0,0,2.3688907,-33.093837,108.86597)">
      <path
         class="st0"
         d="M 72.8,4.3 V 19.2 H 77 V 4.3 Z m -33,0 V 19.2 H 44 V 7.6 h 3.3 c 1.1,0 1.8,0.3 2.4,0.8 0.7,0.7 0.9,1.8 0.9,3.9 v 6.8 h 4.1 V 10.9 C 54.7,5 51,4.2 47.3,4.2 h -7.5 z m 39.8,0 v 14.9 h 6.8 c 3.6,0 4.8,-0.6 6.1,-2 0.9,-0.9 1.5,-3 1.5,-5.3 C 94,9.8 93.5,7.9 92.6,6.8 91,4.7 88.8,4.3 85.5,4.3 Z m 4.2,3.2 h 1.8 c 2.6,0 4.3,1.2 4.3,4.2 0,3.1 -1.7,4.2 -4.3,4.2 H 83.8 Z M 66.8,4.3 63.3,16.1 59.9,4.3 h -4.5 l 4.8,14.9 h 6 L 71,4.3 Z m 29.1,14.8 h 4.2 V 4.3 h -4.2 z m 11.8,-14.8 -5.9,14.8 h 4.1 l 0.9,-2.6 h 6.9 l 0.9,2.6 h 4.5 L 113.2,4.3 Z m 2.7,2.7 2.5,7 h -5.2 z"
         id="path828"
         style="fill:#000000;fill-opacity:1" />
      <path
         class="st1"
         d="m 12.8,6.8 v -2 c 0.2,0 0.4,0 0.6,0 5.6,-0.2 9.3,4.8 9.3,4.8 0,0 -4,5.5 -8.2,5.5 -0.6,0 -1.2,-0.1 -1.7,-0.3 V 8.5 c 2.2,0.3 2.6,1.2 3.9,3.4 l 2.9,-2.5 c 0,0 -2.1,-2.8 -5.7,-2.8 -0.4,0.1 -0.8,0.1 -1.1,0.2 m 0,-6.8 v 3.1 c 0.2,0 0.4,0 0.6,0 7.8,-0.3 12.8,6.4 12.8,6.4 0,0 -5.8,7.1 -11.9,7.1 -0.6,0 -1.1,-0.1 -1.6,-0.1 v 1.9 c 0.4,0.1 0.9,0.1 1.3,0.1 5.6,0 9.7,-2.9 13.7,-6.3 0.7,0.5 3.3,1.8 3.9,2.4 -3.8,3.1 -12.5,5.7 -17.5,5.7 -0.5,0 -0.9,0 -1.4,-0.1 v 2.7 H 34.1 V 0 Z m 0,14.7 v 1.6 C 7.5,15.4 6.1,10 6.1,10 c 0,0 2.5,-2.8 6.7,-3.2 v 1.8 c 0,0 0,0 0,0 -2.2,-0.3 -3.9,1.8 -3.9,1.8 0,0 0.9,3.3 3.9,4.3 m -9.3,-5 c 0,0 3.1,-4.6 9.3,-5 V 3.1 C 5.9,3.6 0,9.4 0,9.4 0,9.4 3.4,19.1 12.8,20 V 18.2 C 5.9,17.4 3.5,9.7 3.5,9.7"
         id="path830"
         style="fill:#80bc00;fill-opacity:1" />
      <path
         class="st0"
         d="m 44.7,43.3 c -1.7,0 -3,-0.6 -4.2,-1.7 -0.7,-0.7 -1.1,-1.5 -1.3,-2.3 -0.2,-0.9 -0.3,-2.2 -0.3,-3.9 0,-1.7 0.1,-3 0.3,-3.9 0.2,-0.9 0.6,-1.7 1.3,-2.3 1.1,-1.1 2.5,-1.7 4.2,-1.7 3,0 5.2,1.7 5.7,4.9 h -3.1 c -0.3,-1.3 -1.2,-2.2 -2.6,-2.2 -0.8,0 -1.5,0.3 -1.9,0.8 -0.6,0.7 -0.8,1.4 -0.8,4.4 0,3 0.1,3.7 0.8,4.4 0.5,0.5 1.1,0.8 1.9,0.8 1.5,0 2.3,-0.9 2.6,-2.2 h 3.1 c -0.5,3.2 -2.7,4.9 -5.7,4.9"
         id="path832"
         style="fill:#000000;fill-opacity:1" />
      <path
         class="st0"
         d="m 58.5,43.3 c -3.2,0 -5.7,-2.2 -5.7,-5.4 V 27.7 h 3 v 10.1 c 0,1.8 1,2.9 2.7,2.9 1.6,0 2.7,-1.1 2.7,-2.9 V 27.7 h 3 v 10.2 c 0,3.3 -2.5,5.4 -5.7,5.4"
         id="path834"
         style="fill:#000000;fill-opacity:1" />
      <path
         class="st0"
         d="m 77.3,41.7 c -1,1 -2.5,1.5 -4.1,1.5 H 67.6 V 27.7 h 5.6 c 1.6,0 3.1,0.5 4.1,1.5 1.7,1.7 1.6,3.9 1.6,6.2 0,2.3 0.1,4.6 -1.6,6.3 M 75.2,31.3 c -0.5,-0.6 -1.2,-1 -2.3,-1 h -2.3 v 10.1 h 2.3 c 1,0 1.7,-0.3 2.3,-1 0.6,-0.7 0.7,-1.8 0.7,-4.2 C 75.8,33 75.7,32 75.2,31.3"
         id="path836"
         style="fill:#000000;fill-opacity:1" />
      <path
         class="st0"
         d="m 90.6,43.2 -0.9,-2.7 h -5.5 l -0.9,2.7 H 80 L 85.6,27.7 H 88 l 5.7,15.5 z m -3.7,-10.9 -2,5.6 h 3.9 z"
         id="path838"
         style="fill:#000000;fill-opacity:1" />
    </g>
  </g>
  <style
     type="text/css"
     id="style824">
	.st0{fill:#010101;}
	.st1{fill:#80BC00;}
</style>
</svg>
